<svg xmlns="http://www.w3.org/2000/svg" viewBox="265 -960 494 1024" fill="currentColor">
  <g transform="scale(1,-1)">
    <path d="M708 260H674V294H725Q732 294 737.0 299.0Q742 304 742 311V380Q742 387 737.0 392.0Q732 397 725 397H691V789Q691 796 686.0 801.0Q681 806 674 806H623V926H691V960H316V926H384V806H333Q326 806 321.0 801.0Q316 796 316 789V397H282Q275 397 270.0 392.0Q265 387 265 380V311Q265 304 270.0 299.0Q275 294 282 294H333V-30Q333 -44 343.0 -54.0Q353 -64 367 -64H640Q654 -64 664.0 -54.0Q674 -44 674 -30V21H708Q729 21 744.0 36.0Q759 51 759 73V209Q759 230 744.0 245.0Q729 260 708 260ZM418 926H589V806H418V926ZM418 772H589V465H418V772ZM640 -30H367V124H640ZM640 158H367V294H640ZM299 329V363H333Q340 363 345.0 368.0Q350 373 350 380V772H384V448Q384 441 389.0 436.0Q394 431 401 431H606Q613 431 618.0 436.0Q623 441 623 448V772H657V380Q657 373 662.0 368.0Q667 363 674 363H708V329H299ZM725 73Q725 65 720.0 60.0Q715 55 708 55H674V226H708Q715 226 720.0 221.0Q725 216 725 209ZM521 738H486V704H521ZM521 670H486V636H521ZM521 602H486V567H521ZM521 533H486V499H521Z"/>
  </g>
</svg>