<svg xmlns="http://www.w3.org/2000/svg" viewBox="133 -960 758 1024" fill="currentColor">
  <g transform="scale(1,-1)">
    <path d="M830 107H806V678Q806 679 806.0 679.5Q806 680 806 681Q821 699 829.5 721.5Q838 744 838 770V920Q845 922 849.5 927.5Q854 933 854 940Q854 948 848.5 954.0Q843 960 834 960H190Q181 960 175.5 954.0Q170 948 170 940Q170 933 174.5 927.5Q179 922 186 920V770Q186 745 194.5 722.0Q203 699 218 681V107H194Q169 107 151.0 89.5Q133 72 133 47V-44Q133 -52 139.0 -58.0Q145 -64 153 -64H871Q879 -64 885.0 -58.0Q891 -52 891 -44V47Q891 72 873.0 89.5Q855 107 830 107ZM798 920V770Q798 729 769.0 699.5Q740 670 699 670H325Q284 670 255.0 699.5Q226 729 226 770V920H798ZM482 550H542V506H482V550ZM412 590V630H612V590ZM258 648Q273 639 290.0 634.5Q307 630 325 630H372V570Q372 562 378.0 556.0Q384 550 392 550H442V486Q442 478 448.0 472.0Q454 466 462 466H562Q570 466 576.0 472.0Q582 478 582 486V550H632Q640 550 646.0 556.0Q652 562 652 570V630H699Q717 630 734.0 634.5Q751 639 766 648V107H630Q635 116 638.0 126.5Q641 137 641 148V158H693Q702 158 707.5 164.0Q713 170 713 178V276Q713 284 707.5 290.0Q702 296 693 296H641V312Q641 320 635.0 326.0Q629 332 621 332H404Q396 332 390.0 326.0Q384 320 384 312V148Q384 137 387.0 126.5Q390 116 395 107H258V648ZM424 148V292H601V148Q601 131 589.0 119.0Q577 107 560 107H465Q448 107 436.0 119.0Q424 131 424 148ZM641 256H673V198H641ZM851 -24H173V47Q173 55 179.0 61.0Q185 67 194 67H830Q839 67 845.0 61.0Q851 55 851 47V-24ZM329 720Q354 720 371.5 737.5Q389 755 389 779Q389 804 371.5 821.5Q354 839 329 839Q304 839 286.5 821.5Q269 804 269 779Q269 755 286.5 737.5Q304 720 329 720ZM329 799Q337 799 343.0 793.5Q349 788 349 779Q349 771 343.0 765.5Q337 760 329 760Q321 760 315.0 765.5Q309 771 309 779Q309 788 315.0 793.5Q321 799 329 799ZM619 795H735Q743 795 749.0 801.0Q755 807 755 815Q755 824 749.0 829.5Q743 835 735 835H619Q611 835 605.0 829.5Q599 824 599 815Q599 807 605.0 801.0Q611 795 619 795ZM619 724H735Q743 724 749.0 729.5Q755 735 755 744Q755 752 749.0 758.0Q743 764 735 764H619Q611 764 605.0 758.0Q599 752 599 744Q599 735 605.0 729.5Q611 724 619 724Z"/>
  </g>
</svg>