<svg xmlns="http://www.w3.org/2000/svg" viewBox="0 -948 1024 1004" fill="currentColor">
  <g transform="scale(1,-1)">
    <path d="M1004 546H840V587Q840 595 834.0 601.0Q828 607 820 607H388Q380 607 374.0 601.0Q368 595 368 587Q368 579 374.0 573.5Q380 568 388 568H800V416Q800 367 787 319Q774 272 749.5 230.0Q725 188 690 154Q656 119 612 93H228Q184 119 150 154Q115 188 90.5 230.0Q66 272 53 319Q40 367 40 416V568H174Q182 568 188.0 573.5Q194 579 194 587Q194 595 188.0 601.0Q182 607 174 607H20Q12 607 6.0 601.0Q0 595 0 587V416Q0 361 15.0 307.0Q30 253 59 205Q78 173 103.0 145.0Q128 117 158 93H20Q12 93 6.0 87.5Q0 82 0 74Q0 20 38.5 -18.0Q77 -56 132 -56H756Q811 -56 849.5 -18.0Q888 20 888 74Q888 82 882.0 87.5Q876 93 868 93H682Q709 115 732.5 140.5Q756 166 775 195H831Q911 195 967.5 250.5Q1024 306 1024 385V526Q1024 534 1018.0 540.0Q1012 546 1004 546ZM846 54Q839 24 814.0 3.5Q789 -17 756 -17H132Q99 -17 74.0 3.5Q49 24 42 54ZM840 416V427H904V385Q904 355 882.5 334.0Q861 313 831 313H827Q833 339 836.5 364.5Q840 390 840 416ZM984 385Q984 323 939.0 279.0Q894 235 831 235H797Q802 244 806.5 254.0Q811 264 814 274H831Q878 274 911.0 306.5Q944 339 944 385V447Q944 455 938.0 461.0Q932 467 924 467H840V506H984V385ZM439 843 429 856Q417 870 417.0 888.0Q417 906 429 920Q434 927 433.0 935.0Q432 943 425 948Q419 953 410.5 952.0Q402 951 397 945Q377 920 377.0 888.5Q377 857 397 832L408 819Q423 800 423.0 776.5Q423 753 408 735L397 722Q392 715 393.0 707.0Q394 699 400 694Q403 692 406.5 691.0Q410 690 413 690Q417 690 421.5 691.5Q426 693 429 697L439 710Q463 740 463.0 777.0Q463 814 439 843ZM550 799 540 812Q528 826 528.0 844.0Q528 862 539 876Q545 883 544.0 891.0Q543 899 536 904Q530 909 521.5 908.0Q513 907 508 901Q488 876 488.0 844.0Q488 812 508 787L519 774Q534 756 534.0 732.5Q534 709 519 691L508 677Q503 671 504.0 663.0Q505 655 511 650Q514 647 517.0 646.0Q520 645 524 645Q528 645 532.0 647.0Q536 649 539 653L550 666Q574 695 574.0 732.5Q574 770 550 799ZM328 799 318 812Q306 826 306.0 844.0Q306 862 318 876Q323 883 322.0 891.0Q321 899 315 904Q308 909 300.0 908.0Q292 907 286 901Q266 876 266.0 844.0Q266 812 287 787L297 774Q312 756 312.0 732.5Q312 709 297 691L286 677Q281 671 282.0 663.0Q283 655 290 650Q292 647 295.5 646.0Q299 645 302 645Q306 645 310.5 647.0Q315 649 318 653L328 666Q352 695 352.0 732.5Q352 770 328 799ZM301 601Q298 604 294.0 605.5Q290 607 286 607Q282 607 278.5 605.5Q275 604 272 601Q269 598 267.5 594.5Q266 591 266 587Q266 583 267.5 579.5Q269 576 272 573Q275 571 278.5 569.5Q282 568 286 568Q290 568 294.0 569.5Q298 571 301 573Q303 576 304.5 579.5Q306 583 306 587Q306 591 304.5 594.5Q303 598 301 601ZM724 436Q716 436 710.0 430.5Q704 425 704 416Q704 362 682.5 310.0Q661 258 621 219Q616 214 616.0 205.5Q616 197 622 191Q624 189 628.0 187.5Q632 186 636 186Q639 186 643.0 187.5Q647 189 650 192Q695 236 719.5 295.0Q744 354 744 416Q744 425 738.0 430.5Q732 436 724 436ZM588 166Q584 173 576.0 175.0Q568 177 561 173H560Q553 169 550.5 161.0Q548 153 552 146Q555 141 560.0 138.5Q565 136 570 136Q572 136 574.5 136.5Q577 137 580 139Q587 143 589.5 151.0Q592 159 588 166Z"/>
  </g>
</svg>