<svg xmlns="http://www.w3.org/2000/svg" viewBox="26 -960 973 1024" fill="currentColor">
  <g transform="scale(1,-1)">
    <path d="M43 516H282Q289 516 294.0 521.0Q299 526 299 533V550H333V533Q333 526 338.0 521.0Q343 516 350 516H371L385 461Q386 455 391.0 451.5Q396 448 401 448H470Q476 448 480.5 451.5Q485 455 486 461L500 516H521Q528 516 533.0 521.0Q538 526 538 533V619Q543 619 547.0 621.5Q551 624 553 628L583 687H657V107H544Q565 121 577.0 143.5Q589 166 589 191V311Q589 319 584.0 324.0Q579 329 572 329H299Q292 329 287.0 324.0Q282 319 282 311H197Q190 311 185.0 306.0Q180 301 180 294V192Q180 185 185.0 180.0Q190 175 197 175H283Q287 154 298.5 136.0Q310 118 328 107H197Q190 107 185.0 102.0Q180 97 180 90V-47Q180 -54 185.0 -59.0Q190 -64 197 -64H982Q989 -64 994.0 -59.0Q999 -54 999 -47V943Q999 950 994.0 955.0Q989 960 982 960H197Q190 960 185.0 955.0Q180 950 180 943V704Q180 697 185.0 692.0Q190 687 197 687H289L318 628Q320 624 324.0 621.5Q328 619 333 619V585H299V602Q299 609 294.0 614.0Q289 619 282 619H43Q36 619 31.0 614.0Q26 609 26 602V533Q26 526 31.0 521.0Q36 516 43 516ZM214 277H282V209H214ZM316 192V294H555V191Q555 163 535.0 143.5Q515 124 487 124H384Q356 124 336.0 143.5Q316 163 316 191V192ZM456 482H415L406 516H465L456 482ZM692 687H965V107H692ZM965 -30H214V73H965ZM214 926H965V721H214V926ZM327 687H545L527 653H344L327 687ZM504 619V550H367V619ZM60 585H265V550H60V585ZM436 755Q464 755 484.0 775.0Q504 795 504 823Q504 852 484.0 872.0Q464 892 436 892Q407 892 387.0 872.0Q367 852 367 823Q367 795 387.0 775.0Q407 755 436 755ZM436 858Q450 858 460.0 848.0Q470 838 470 823Q470 809 460.0 799.0Q450 789 436 789Q421 789 411.0 799.0Q401 809 401 823Q401 838 411.0 848.0Q421 858 436 858ZM538 841H572V806H538ZM606 841H640V806H606ZM811 294H845V158H811ZM743 294H777V158H743ZM879 294H913V158H879Z"/>
  </g>
</svg>