<svg xmlns="http://www.w3.org/2000/svg" viewBox="78 -960 868 1024" fill="currentColor">
  <g transform="scale(1,-1)">
    <path d="M810 636H786Q777 644 765.5 648.5Q754 653 742 653H708V721Q711 721 714.0 722.5Q717 724 720 726Q722 728 723.5 731.5Q725 735 725 738V806Q725 810 723.5 813.0Q722 816 720 818Q717 821 714.0 822.0Q711 823 708 823H486V858H503Q514 858 523.0 861.5Q532 865 540 873Q547 880 551.0 889.5Q555 899 555 909Q555 919 551.0 928.5Q547 938 540 945Q532 952 523.0 956.0Q514 960 503 960H367Q357 960 347.5 956.0Q338 952 331 945Q324 938 320.0 928.5Q316 919 316 909Q316 899 320.0 889.5Q324 880 331 873Q338 865 347.5 861.5Q357 858 367 858H384V823H163Q160 823 156.5 822.0Q153 821 151 818Q148 816 147.0 813.0Q146 810 146 806V755H95Q92 755 89.5 754.5Q87 754 85 752Q83 751 81.5 749.0Q80 747 79 745Q78 742 78.0 739.5Q78 737 78 735Q79 732 80.0 730.0Q81 728 83 726L163 646V38Q160 38 156.5 37.0Q153 36 151 33Q148 31 147.0 28.0Q146 25 146 21V-47Q146 -50 147.0 -53.5Q148 -57 151 -59Q153 -61 156.5 -62.5Q160 -64 163 -64H708Q711 -64 714.0 -62.5Q717 -61 720 -59Q722 -57 723.5 -53.5Q725 -50 725 -47V21Q725 25 723.5 28.0Q722 31 720 33Q717 36 714.0 37.0Q711 38 708 38V107H742Q754 107 765.5 111.5Q777 116 786 124H810Q833 124 854.5 132.5Q876 141 893 157Q910 174 919.0 195.0Q928 216 929 239Q933 243 936.5 247.5Q940 252 942 256Q944 261 945.0 266.5Q946 272 946 277V482Q946 488 945.0 493.0Q944 498 942 503Q940 508 936.5 512.5Q933 517 929 520Q928 543 919.0 564.5Q910 586 893 602Q876 618 854.5 627.0Q833 636 810 636ZM827 240Q826 237 824.5 234.5Q823 232 821 230Q818 228 815.5 227.0Q813 226 810 226H786Q777 234 765.5 238.5Q754 243 742 243H708V516H742Q754 516 765.5 520.5Q777 525 786 533H810Q813 533 815.5 532.0Q818 531 821 530Q823 528 824.5 525.5Q826 523 827 520Q823 516 820.0 512.0Q817 508 814 503Q812 498 811.0 492.5Q810 487 810 482V277Q810 272 811.0 267.0Q812 262 814 257Q817 252 820.0 247.5Q823 243 827 240ZM418 721V670H197V721ZM674 533H197V636H674ZM197 499H418V260H197V499ZM452 499H674V260H452V499ZM742 619Q749 619 755.0 616.0Q761 613 766 609Q771 604 773.5 597.5Q776 591 776 585Q776 578 773.5 571.5Q771 565 766 560Q761 556 755.0 553.0Q749 550 742 550H708V619H742ZM674 670H452V721H674ZM350 909Q350 912 351.5 915.0Q353 918 355 921Q358 923 361.0 924.5Q364 926 367 926H503Q507 926 510.0 924.5Q513 923 516 921Q518 918 519.5 915.0Q521 912 521 909Q521 905 519.5 902.0Q518 899 516 897Q513 894 510.0 893.0Q507 892 503 892H367Q364 892 361.0 893.0Q358 894 355 897Q353 899 351.5 902.0Q350 905 350 909ZM418 858H452V823H418ZM180 789H691V755H180ZM163 721V694L136 721ZM691 -30H180V4H691ZM197 38V226H674V38H197ZM742 141H708V209H742Q749 209 755.0 206.5Q761 204 766 199Q771 194 773.5 188.0Q776 182 776 175Q776 168 773.5 162.0Q771 156 766 151Q761 146 755.0 143.5Q749 141 742 141ZM912 277Q912 275 911.5 273.0Q911 271 910 269Q909 267 907.5 265.5Q906 264 904 263Q902 262 900.5 260.0Q899 258 897 256Q896 255 895.5 252.5Q895 250 895 248V243Q895 226 888.5 210.5Q882 195 870 183Q858 171 842.5 164.5Q827 158 810 158H808Q810 166 810.0 175.0Q810 184 808 192H810Q820 192 829.5 196.0Q839 200 846 207Q853 214 857.0 223.5Q861 233 861 243V248Q861 250 860.5 252.5Q860 255 859 256Q858 258 856.5 260.0Q855 262 853 263Q851 264 849.0 265.5Q847 267 846 269Q845 271 844.5 273.0Q844 275 844 277V482Q844 484 844.5 486.5Q845 489 846 491Q847 493 849.0 494.5Q851 496 853 497Q855 498 856.5 499.5Q858 501 859 503Q860 505 860.5 507.0Q861 509 861 512V516Q861 526 857.0 535.5Q853 545 846 552Q839 560 829.5 563.5Q820 567 810 567H808Q810 576 810.0 584.5Q810 593 808 602H810Q827 602 842.5 595.5Q858 589 870 577Q882 565 888.5 549.0Q895 533 895 516V512Q895 509 895.5 507.0Q896 505 897 503Q899 501 900.5 499.5Q902 498 904 497Q906 496 907.5 494.5Q909 493 910 491Q911 489 911.5 486.5Q912 484 912 482V277Z"/>
  </g>
</svg>