<svg xmlns="http://www.w3.org/2000/svg" viewBox="2 -960 898 1024" fill="currentColor">
  <g transform="scale(1,-1)">
    <path d="M885 688 817 776Q810 785 800.5 789.5Q791 794 779 794H723Q719 802 712.0 806.5Q705 811 696 811H633L448 873Q445 874 441.5 875.0Q438 876 435 876L444 922Q445 929 443.5 936.0Q442 943 437 948Q433 954 426.5 957.0Q420 960 413 960H355Q348 960 341.5 957.0Q335 954 331 948Q326 943 324.5 936.0Q323 929 324 922L333 876Q330 876 326.5 875.0Q323 874 320 873L136 811H72Q61 811 51.0 806.0Q41 801 34 792L5 752Q1 747 0.5 740.0Q0 733 2 728Q5 722 10.5 718.5Q16 715 23 715H48Q48 715 48.5 714.5Q49 714 49 714L150 575L159 506Q160 500 164.0 496.5Q168 493 174 493Q174 493 174.5 493.0Q175 493 175 493Q182 494 185.5 499.0Q189 504 188 510L179 581L185 781H256L300 425Q301 422 301.5 419.0Q302 416 303 413H202Q201 413 200.5 413.5Q200 414 200 415L196 450Q195 456 190.0 460.0Q185 464 179 463Q173 462 169.5 457.0Q166 452 166 446L171 411Q172 399 181.0 391.0Q190 383 202 383H205V297H201Q190 297 181.0 289.5Q172 282 170 270L129 -9Q127 -19 130.0 -29.0Q133 -39 140 -47Q147 -55 156.5 -59.5Q166 -64 176 -64H212Q218 -64 222.5 -59.5Q227 -55 227 -49Q227 -43 222.5 -38.5Q218 -34 212 -34H176Q172 -34 168.5 -32.5Q165 -31 162 -28Q160 -25 159.0 -21.0Q158 -17 158 -13L161 2H608L610 -13Q610 -17 609.0 -21.0Q608 -25 606 -28Q603 -31 599.5 -32.5Q596 -34 592 -34H272Q266 -34 261.5 -38.5Q257 -43 257 -49Q257 -55 261.5 -59.5Q266 -64 272 -64H592Q603 -64 612.0 -59.5Q621 -55 628 -47Q635 -39 638.0 -29.0Q641 -19 639 -9L598 270Q596 282 587.5 289.5Q579 297 567 297H563V383H567Q578 383 587.0 391.0Q596 399 598 411L625 632H673Q678 632 682.5 633.0Q687 634 691 635L719 647Q735 653 751.5 648.5Q768 644 779 630Q785 620 787.5 609.0Q790 598 788 587L739 365Q739 364 738.5 364.0Q738 364 738 364H696Q683 364 674.0 354.5Q665 345 665 332V299Q665 286 674.0 276.5Q683 267 696 267H779Q796 267 808.5 277.5Q821 288 825 304L900 619Q904 637 900.0 655.0Q896 673 885 688ZM697 779V741Q697 734 693.0 729.0Q689 724 683 723L635 715L643 781H696Q697 781 697.0 780.5Q697 780 697 779ZM354 929Q354 930 354.5 930.0Q355 930 355 930H413Q413 930 413.5 930.0Q414 930 414 929Q415 929 415.0 928.5Q415 928 415 928L405 877H363L353 928Q353 928 353.0 928.5Q353 929 354 929ZM48 745H36L58 774Q60 777 64.0 779.0Q68 781 72 781H155L151 624L73 732Q68 738 61.5 741.5Q55 745 48 745ZM329 845Q333 846 337.0 846.5Q341 847 346 847H423Q427 847 431.0 846.5Q435 846 439 845L539 811H230L329 845ZM330 429 286 781H482L439 429Q438 422 433.0 417.5Q428 413 421 413H347Q341 413 335.5 417.5Q330 422 330 429ZM200 266Q200 267 200.5 267.0Q201 267 201 267H304Q303 265 302.0 262.0Q301 259 301 256L267 32H165ZM439 252 472 32H297L330 252Q331 258 336.0 262.5Q341 267 348 267H421Q428 267 433.0 262.5Q438 258 439 252ZM568 266 603 32H502L469 256Q468 259 467.5 262.0Q467 265 466 267H567Q567 267 567.5 267.0Q568 267 568 266ZM533 297H235V383H533ZM568 415Q568 414 567.5 413.5Q567 413 567 413H465Q466 416 467.0 419.0Q468 422 468 425L512 781H613ZM871 626 796 311Q795 305 790.0 301.0Q785 297 779 297H696Q695 297 694.5 297.5Q694 298 694 299V332Q694 333 694.5 333.5Q695 334 696 334H738Q749 334 757.5 341.0Q766 348 768 358L817 580Q820 598 816.5 615.5Q813 633 803 647Q786 670 759.5 677.5Q733 685 707 674L680 663Q678 662 676.5 662.0Q675 662 673 662H629L631 684L688 694Q705 697 716.0 710.0Q727 723 727 741V764H779Q784 764 787.5 762.5Q791 761 794 757L862 670Q869 660 871.5 649.0Q874 638 871 626Z"/>
  </g>
</svg>