<svg xmlns="http://www.w3.org/2000/svg" viewBox="2 -911 1022 944" fill="currentColor">
  <g transform="scale(1,-1)">
    <path d="M1006 911Q988 929 962.5 929.0Q937 929 919 911L794 785Q790 780 790.0 774.0Q790 768 794 763Q799 759 805.0 759.0Q811 759 816 763L940 889Q949 898 962.5 898.0Q976 898 985 889Q989 885 991.5 879.0Q994 873 994 866Q994 860 991.5 854.0Q989 848 985 844L565 419Q556 410 542.5 410.0Q529 410 520 419Q516 424 513.5 430.0Q511 436 511 442Q511 446 512.0 450.0Q513 454 515 457Q515 457 515.0 457.0Q515 457 515 457Q516 459 517.0 461.0Q518 463 520 465L753 700Q757 704 757.0 710.5Q757 717 753 721Q748 726 742.0 726.0Q736 726 732 721L503 491Q507 524 517.5 551.5Q528 579 536 595Q539 601 539.0 608.0Q539 615 535 621Q532 626 527.0 629.0Q522 632 517 632H482Q475 632 471.0 627.5Q467 623 467 617Q467 610 471.0 605.5Q475 601 482 601H506Q496 581 485.5 549.0Q475 517 472 480H78Q76 517 65.5 549.0Q55 581 45 601H194Q196 593 199.5 580.0Q203 567 207 553Q216 526 241.5 510.0Q267 494 271 492Q274 491 277.5 491.0Q281 491 284 492Q287 494 312.5 510.0Q338 526 347 553Q352 567 355.5 580.0Q359 593 360 601H384Q390 601 394.5 605.5Q399 610 399 617Q399 623 394.5 627.5Q390 632 384 632H348Q343 632 338.5 628.5Q334 625 333 619Q333 619 329.5 602.0Q326 585 319 563Q315 550 301.0 539.0Q287 528 277 523Q267 528 253.5 539.0Q240 550 236 563Q228 585 224.5 602.0Q221 619 221 619Q220 625 216.0 628.5Q212 632 207 632H36Q29 632 24.0 629.0Q19 626 16 620Q12 615 12.0 608.0Q12 601 15 595Q22 581 34.0 549.5Q46 518 48 480H32Q21 480 13.5 472.0Q6 464 6 453V422Q6 411 13.5 403.0Q21 395 32 395H42Q40 381 37.5 364.0Q35 347 32 328Q31 322 35.0 317.0Q39 312 45 311Q46 311 46.5 311.0Q47 311 47 311Q53 311 57.0 314.5Q61 318 62 324Q65 344 67.5 362.0Q70 380 72 395H478Q484 354 494.0 288.5Q504 223 519 135Q524 108 517.0 81.5Q510 55 493 35Q478 17 458.0 7.5Q438 -2 415 -2H135Q113 -2 93.0 7.5Q73 17 58 35Q41 55 34.0 81.5Q27 108 32 135Q36 161 40.0 184.5Q44 208 47 230Q48 236 44.5 241.0Q41 246 35 247Q29 248 24.0 244.5Q19 241 18 235Q14 213 10.0 189.5Q6 166 2 140Q-3 106 5.5 73.5Q14 41 35 15Q54 -8 80.5 -20.5Q107 -33 135 -33H415Q444 -33 470.0 -20.5Q496 -8 516 15Q537 41 545.5 73.5Q554 106 549 140Q535 223 525.0 285.5Q515 348 510 389Q517 385 525.5 382.5Q534 380 542 380Q554 380 565.5 384.5Q577 389 586 398L1006 822Q1015 831 1019.5 842.5Q1024 854 1024 866Q1024 879 1019.5 890.5Q1015 902 1006 911ZM36 426V449H481Q481 448 481.0 446.0Q481 444 481 442Q481 438 481.5 434.0Q482 430 483 426H36ZM135 82Q132 82 128.5 84.0Q125 86 122 90Q117 96 115.0 104.0Q113 112 114 121Q126 191 135.0 247.0Q144 303 150 344Q151 350 147.0 355.0Q143 360 137 361Q131 362 126.0 358.5Q121 355 120 349Q114 308 105.0 252.0Q96 196 85 126Q82 111 86.0 96.0Q90 81 99 70Q106 61 115.5 56.5Q125 52 135 52Q142 52 146.0 56.5Q150 61 150 67Q150 73 146.0 77.5Q142 82 135 82ZM543 427Q550 427 554.0 431.5Q558 436 558 442Q558 449 554.0 453.5Q550 458 543 458Q537 458 532.5 453.5Q528 449 528 442Q528 436 532.5 431.5Q537 427 543 427Z"/>
  </g>
</svg>