<svg xmlns="http://www.w3.org/2000/svg" viewBox="128 -960 768 1024" fill="currentColor">
  <g transform="scale(1,-1)">
    <path d="M363 661Q357 661 351.5 664.5Q346 668 344 673L216 929Q212 937 214.5 945.5Q217 954 225 958Q233 962 241.5 959.0Q250 956 254 948L382 692Q386 684 383.0 676.0Q380 668 372 664Q370 662 367.5 661.5Q365 661 363 661ZM661 661Q659 661 656.5 661.5Q654 662 652 664Q644 668 641.0 676.0Q638 684 642 692L770 948Q774 956 782.5 959.0Q791 962 799 958Q807 954 809.5 945.5Q812 937 808 929L680 673Q678 668 672.5 664.5Q667 661 661 661ZM832 917H192Q183 917 177.0 923.5Q171 930 171 939Q171 947 177.0 953.5Q183 960 192 960H832Q841 960 847.0 953.5Q853 947 853 939Q853 930 847.0 923.5Q841 917 832 917ZM747 533H277Q251 533 232.0 552.0Q213 571 213 597V640Q213 666 232.0 685.0Q251 704 277 704H747Q773 704 792.0 685.0Q811 666 811 640V597Q811 571 792.0 552.0Q773 533 747 533ZM277 661Q269 661 262.5 655.0Q256 649 256 640V597Q256 589 262.5 582.5Q269 576 277 576H747Q755 576 761.5 582.5Q768 589 768 597V640Q768 649 761.5 655.0Q755 661 747 661H277ZM747 -64H277Q216 -64 172.0 -20.0Q128 24 128 85Q128 101 131.0 115.5Q134 130 140 144L300 562Q303 571 311.0 574.5Q319 578 328 575Q336 571 339.5 563.0Q343 555 340 547L179 128Q175 117 173.0 106.5Q171 96 171 85Q171 41 202.0 10.0Q233 -21 277 -21H747Q791 -21 822.0 10.0Q853 41 853 85Q853 96 851.0 106.5Q849 117 845 127L684 547Q681 555 684.5 563.0Q688 571 696 575Q705 578 713.0 574.5Q721 571 724 562L884 143Q890 130 893.0 115.5Q896 101 896 85Q896 24 852.0 -20.0Q808 -64 747 -64ZM645 256Q614 256 595.5 268.5Q577 281 564 294Q552 305 541.0 312.5Q530 320 512 320Q493 320 482.5 312.5Q472 305 460 294Q447 281 428.5 268.5Q410 256 379 256Q347 256 328.5 268.5Q310 281 297 294Q285 305 274.5 312.5Q264 320 245 320Q237 320 230.5 326.5Q224 333 224 341Q224 350 230.5 356.5Q237 363 245 363Q277 363 295.5 350.0Q314 337 327 325Q339 313 349.5 306.0Q360 299 379 299Q397 299 408.0 306.0Q419 313 430 325Q444 337 462.0 350.0Q480 363 512 363Q543 363 561.5 350.0Q580 337 593 325Q605 313 616.0 306.0Q627 299 645 299Q664 299 674.5 306.0Q685 313 697 325Q710 337 728.5 350.0Q747 363 779 363Q787 363 793.5 356.5Q800 350 800 341Q800 333 793.5 326.5Q787 320 779 320Q760 320 749.5 312.5Q739 305 727 294Q713 281 695.0 268.5Q677 256 645 256Z"/>
  </g>
</svg>